<?xml version="1.0" encoding="utf-8"?>
<svg xmlns="http://www.w3.org/2000/svg" viewBox="-344.8 -474.725 5014.935 1386.37" xmlns:bx="https://boxy-svg.com" width="5014.935px" height="1386.37px"><defs><bx:export><bx:file format="svg"/></bx:export></defs><g transform="matrix(1, 0, 0, 1, -1207.379866, -1131.084945)"><path class="st1" d="M1500.94,2042.73c-86.14,0-169.75-16.89-248.5-50.2c-76.02-32.16-144.29-78.17-202.89-136.77 c-58.6-58.6-104.62-126.86-136.77-202.89c-33.31-78.75-50.2-162.36-50.2-248.5s16.89-169.75,50.2-248.5 c32.16-76.02,78.17-144.29,136.77-202.89c58.6-58.6,126.86-104.62,202.89-136.77c78.75-33.31,162.36-50.2,248.5-50.2 c86.14,0,169.75,16.89,248.5,50.2c76.03,32.16,144.29,78.17,202.89,136.77c58.6,58.6,104.62,126.86,136.77,202.89 c33.31,78.75,50.2,162.36,50.2,248.5s-16.89,169.75-50.2,248.5c-32.16,76.03-78.17,144.29-136.77,202.89 s-126.86,104.62-202.89,136.77C1670.69,2025.84,1587.08,2042.73,1500.94,2042.73z" style="fill: rgb(253, 252, 255);"/><path class="st3" d="M1500.94,2002.72c-80.76,0-159.13-15.83-232.92-47.04c-71.26-30.14-135.25-73.28-190.19-128.22 c-54.94-54.94-98.08-118.93-128.22-190.19c-31.21-73.79-47.04-152.16-47.04-232.92s15.83-159.13,47.04-232.92 c30.14-71.26,73.28-135.25,128.22-190.19c54.94-54.94,118.93-98.08,190.19-128.22c73.79-31.21,152.16-47.04,232.92-47.04 c80.76,0,159.13,15.83,232.92,47.04c71.26,30.14,135.25,73.28,190.18,128.22c54.94,54.94,98.08,118.93,128.22,190.19 c31.21,73.79,47.04,152.16,47.04,232.92s-15.83,159.13-47.04,232.92c-30.14,71.26-73.28,135.25-128.22,190.19 c-54.94,54.94-118.93,98.08-190.18,128.22C1660.07,1986.9,1581.7,2002.72,1500.94,2002.72z" style="fill: rgb(9, 31, 49);"/><circle class="st4" cx="1500.94" cy="1404.36" r="558.36" style="fill: rgb(16, 47, 64);"/><path class="st1" d="M1500.94,1932.3c-11.66,0-22.76-3.69-32.1-10.67c-15.91-11.89-59.29-40.42-118.3-48.62 c-14.52-2.02-35.79-3.04-63.22-3.04c-86.35,0-207.42,10.14-255.47,14.49c-1.59,0.14-3.21,0.22-4.8,0.22 c-14.48,0-28.49-6.06-38.43-16.64c-9.93-10.56-15.11-24.92-14.22-39.4l6.4-103.61l-22.25-17.48l27.82-333.79 c1.46-17.56,12.48-32.67,28.75-39.44l26.98-11.22l2.12-17.74c1.9-15.91,11.63-29.6,26.02-36.63l8.84-4.31 c1.17-0.57,7.54-3.64,18.27-8.03c30.86-12.59,113.13-41.86,210.71-41.86c69.69,0,134.49,14.48,192.89,43.08 c5.65-2.77,11.34-5.39,17.04-7.86c53.85-23.37,113.02-35.22,175.84-35.22c125.59,0,224.87,47.87,229.04,49.91l8.83,4.32 c14.37,7.03,24.08,20.72,25.98,36.6l2.12,17.73l26.98,11.22c16.27,6.77,27.29,21.89,28.75,39.45l27.82,333.79l-22.25,17.48 l6.4,103.61c0.89,14.48-4.29,28.84-14.22,39.4c-9.94,10.57-23.95,16.63-38.43,16.63c0,0,0,0,0,0c-1.59,0-3.21-0.07-4.8-0.22 c-48.04-4.36-169.11-14.49-255.47-14.49c-27.42,0-48.69,1.02-63.22,3.04c-59,8.19-102.39,36.73-118.3,48.62 C1523.7,1928.61,1512.6,1932.3,1500.94,1932.3z" style="fill: rgb(253, 252, 255);"/><g><path class="st1" d="M1981.83,887.19l-80.43-39.64l-10.33-5.11l-8.41-4.15h-0.03l-357.86-176.43c-7.3-3.6-15.47-5.5-23.61-5.5 c-8.14,0-16.3,1.9-23.59,5.5l-374.94,184.66l-82.57,40.65c-16.45,8.1-26.76,24.51-26.92,42.84s9.87,34.92,26.17,43.31 l174.74,89.86v125.65c0,18.67,10.93,35.83,27.86,43.71l244.82,114.06l33.5,15.88l16.68-7.27l17.64-7.96l233.37-108.72 c8.54,11.99,22.55,19.82,38.36,19.82h99.53c25.95,0,47.06-21.11,47.06-47.06v-129.18c0-16.72-8.76-31.43-21.94-39.78v-42.44 l51.64-26.56c16.3-8.38,26.33-24.97,26.17-43.3S1998.27,895.29,1981.83,887.19z" style="fill: rgb(253, 252, 255);"/><g><path class="st3" d="M1964.15,923.07l-80.49-39.67l-10.33-5.11h-0.03l-366.22-180.55c-3.73-1.84-8.11-1.84-11.85,0 L1120.29,882.4l-82.57,40.65c-6.06,2.99-6.14,11.6-0.13,14.7l196.44,101.02v150.06c0,3.2,1.85,6.11,4.75,7.46l244.95,114.12 l17.17,8.14l0.16-0.07l17.02-7.68l22.86-10.65l222.92-103.86c2.9-1.35,4.75-4.26,4.75-7.46v-150.38l52.53-27.04v63.64h-14.88 c-3.9,0-7.06,3.16-7.06,7.06v129.18c0,3.9,3.16,7.06,7.06,7.06h99.53c3.9,0,7.06-3.16,7.06-7.06v-129.18 c0-3.9-3.16-7.06-7.06-7.06h-14.88v-99.56l14.45-7.44l58.9-30.29C1970.28,934.67,1970.21,926.06,1964.15,923.07z" style="fill: rgb(9, 31, 49);"/><path class="st5" d="M1501.15,739.41l-363.19,178.88l-25.92,12.76l35.02,18.01l354.09,182.11l320-164.75v-69.25L1501.15,739.41z M1500.95,969.52c-38.59,0-69.88-31.28-69.88-69.88c0-38.59,31.29-69.88,69.88-69.88h0.2c38.5,0.11,69.68,31.36,69.68,69.88 c0,38.53-31.18,69.77-69.68,69.88H1500.95z" style="fill: rgb(59, 188, 238);"/><path class="st6" d="M1431.07,899.64c0,38.6,31.29,69.88,69.88,69.88h0.2v161.65l-354.09-182.11l-35.02-18.01l25.92-12.76 l363.19-178.88v90.35h-0.2C1462.36,829.76,1431.07,861.05,1431.07,899.64z" style="fill: rgb(53, 175, 223);"/><polygon class="st7" points="1821.15,939.15 1821.15,966.42 1501.15,1131.17 1501.15,1095.07 &#9;&#9;&#9;&#9;" style="fill: rgb(92, 185, 213);"/><polygon class="st8" points="1501.15,1095.07 1501.15,1131.17 1147.06,949.06 1112.04,931.05 1137.96,918.29 1158.43,928.27 &#10;&#9;&#9;&#9;&#9;&#9;1158.44,928.27 1500.95,1095.17 &#9;&#9;&#9;&#9;" style="fill: rgb(17, 101, 116);"/><polygon class="st9" points="1821.15,897.18 1821.15,917.26 1501.15,759.62 1500.95,759.52 1158.44,928.27 1158.43,928.27 &#10;&#9;&#9;&#9;&#9;&#9;1137.96,918.29 1501.15,739.41 &#9;&#9;&#9;&#9;" style="fill: rgb(242, 255, 255);"/><circle class="st9" cx="1500.95" cy="899.64" r="35.29" style="fill: rgb(242, 255, 255);"/><polygon class="st5" points="1728.62,1066.94 1728.62,1168.58 1501.64,1274.33 1501.33,1274.47 1500.95,1274.29 &#10;&#9;&#9;&#9;&#9;&#9;1500.95,1180.58 1500.96,1180.57 &#9;&#9;&#9;&#9;" style="fill: rgb(59, 188, 238);"/><polygon class="st8" points="1500.95,1180.58 1500.95,1274.29 1274.04,1168.58 1274.04,1066.94 1500.92,1180.56 &#9;&#9;&#9;&#9;" style="fill: rgb(17, 101, 116);"/><polygon class="st7" points="1500.95,1274.29 1274.04,1168.58 1274.04,1066.94 1500.92,1180.56 1283.21,1084.58 &#10;&#9;&#9;&#9;&#9;&#9;1283.21,1163.64 &#9;&#9;&#9;&#9;" style="fill: rgb(92, 185, 213);"/><path class="st9" d="M1728.62,1066.94v101.64l-226.98,105.75c-0.45-0.03-0.69-0.04-0.69-0.04l205.09-103.67v-82.51 l-205.08,92.46L1728.62,1066.94z" style="fill: rgb(242, 255, 255);"/><polygon class="st9" points="1865.92,919.25 1865.92,1072.58 1846.15,1072.58 1846.15,909.5 1863.97,918.29 1863.98,918.29 &#9;&#9;&#9;&#9;&#10;&#9;&#9;&#9;&#9;&#9;" style="fill: rgb(242, 255, 255);"/><rect x="1829.21" y="1105.05" class="st9" width="53.65" height="83.3" style="fill: rgb(242, 255, 255);"/><path class="st10" d="M1882.86,1174.23v14.12h-53.65v-69.88h22.94v45.88c0,5.46,4.43,9.88,9.89,9.88H1882.86z" style="fill: rgb(178, 159, 124);"/></g></g><g><path class="st3" d="M2006.88,1691.68l-26.25-315.01c-0.37-4.45-3.19-8.32-7.32-10.04l-45.86-19.08l-4.54-38.04 c-0.48-4.03-2.97-7.53-6.61-9.32l-8.83-4.32c-3.87-1.89-96.06-46.35-213.66-46.35c-58,0-112.49,10.88-161.93,32.34 c-10.06,4.36-20.13,9.27-29.93,14.6l-1.02,0.55l-1.01-0.55c-57.22-31.15-121.78-46.94-191.88-46.94 c-91.38,0-168.52,27.45-197.47,39.26c-9.9,4.05-15.55,6.78-16.16,7.08l-8.84,4.32c-3.65,1.78-6.14,5.29-6.62,9.32l-4.54,38.05 l-45.86,19.08c-4.12,1.72-6.94,5.59-7.32,10.04l-26.25,315.01l21.87,17.18l-7.53,121.94c-0.67,10.88,8.51,19.79,19.36,18.8 c62.99-5.71,252.97-21.5,326.66-11.27c65.71,9.12,113.8,39.83,134.43,55.24c6.62,4.95,15.69,4.95,22.31,0 c20.63-15.42,68.72-46.12,134.43-55.24c73.69-10.23,263.67,5.55,326.66,11.27c10.85,0.98,20.03-7.93,19.36-18.8l-7.53-121.94 L2006.88,1691.68z" style="fill: rgb(9, 31, 49);"/><g><path class="st1" d="M1485.59,1322.82v468c0,0-148.64-108.99-406.59-16.42c-8.7,3.13-17.52,6.48-26.47,10.07l3.17-26.56 l51.89-435.09c0,0,5.08-2.48,14.35-6.27C1170.67,1296.67,1335.23,1240.97,1485.59,1322.82z" style="fill: rgb(253, 252, 255);"/><path class="st1" d="M1949.35,1784.47c-207.57-83.35-349.03-36.88-405.53-9.37c-18.14,8.84-27.53,15.72-27.53,15.72v-468 c9.14-4.97,18.32-9.44,27.53-13.43c171.21-74.29,350.47,13.43,350.47,13.43l51.8,434.3L1949.35,1784.47z" style="fill: rgb(253, 252, 255);"/><g><g><path class="st11" d="M1175.38,1396.02c-1.79,0.47-3.32,0.08-4.31-1.11c-5.07-6.09-10.03-12.08-14.93-17.92 c-1.77-2.12-2.66-3.17-4.41-5.26c-1.35-1.6-1.37-3.53-0.07-6.08c1.12-2.21,3.14-4,5.27-4.66c1.73-0.54,3.26-0.23,4.18,0.85 c2.63,3.07,5.27,6.19,7.92,9.36c1.65,1.97,2.48,2.96,4.15,4.96c0.16,0.19,0.32,0.36,0.54,0.58c0.91,0.95,1.37,1.43,2.28,2.38 c1.75-2.99,2.63-4.48,4.37-7.44c10.82-17.49,22.55-33.72,36.42-48.67c6.44-6.95,14.07-13.65,21.75-19.29 c1.09-0.8,2.17-1.3,3.21-1.46c0.94-0.15,1.9-0.03,2.84,0.35c1.9,0.77,2.74,2.21,2.55,4.4c-0.16,1.94-1.12,3.54-2.93,4.88 c-6.78,5.01-13.51,10.76-19.52,17.06c-10.72,11.24-20.26,23.59-28.99,36.57c-5.41,8.05-10.41,16.86-14.72,25.6 C1179.81,1393.54,1177.64,1395.42,1175.38,1396.02z" style="fill: rgb(0, 22, 52);"/><g><path class="st11" d="M1199.56,1367.26c-0.36,0.55-0.7,1.09-1.05,1.62c-0.86,10.17-1.29,15.3-2.18,25.64 c-0.16,1.82-1.75,3.64-3.57,4.06c-16.4,3.76-32.62,8.33-48.66,13.41c-1.74,0.55-3.01-0.48-2.81-2.3 c1.74-16.63,3.47-33.27,5.17-49.91c0.18-1.76,1.72-3.64,3.43-4.19c14.81-4.63,29.64-8.83,44.69-12.63 c2.37-3.18,4.81-6.28,7.28-9.29c-1.1-0.11-2.31-0.02-3.58,0.28c-16.03,3.74-31.88,8.29-47.55,13.33 c-6.21,2.01-11.76,8.86-12.42,15.23c-1.74,16.64-3.51,33.28-5.29,49.91c-0.71,6.61,3.82,10.29,10.17,8.28 c16.09-5.08,32.36-9.66,48.81-13.41c6.6-1.53,12.45-8.06,12.99-14.67c1.03-12.54,2.04-25.07,3.05-37.61 C1205.14,1358.97,1202.31,1363.05,1199.56,1367.26z" style="fill: rgb(0, 22, 52);"/></g></g><path class="st12" d="M1434.65,1362.16c-58.97-19.71-118.57-24.06-180.2-17.47c0.36-5.98,0.54-8.95,0.89-14.85 c61.33-6.58,120.6-2.18,179.3,17.37C1434.64,1353.14,1434.65,1356.13,1434.65,1362.16z" style="fill: rgb(96, 115, 125);"/><path class="st12" d="M1434.64,1406.64c-59.79-20.19-120.37-24.39-182.89-17.79c0.38-6.17,0.57-9.25,0.95-15.36 c62.21-6.6,122.45-2.34,181.95,17.68C1434.65,1397.32,1434.65,1400.42,1434.64,1406.64z" style="fill: rgb(96, 115, 125);"/></g><g><g><path class="st11" d="M1162.26,1533.93c-1.88,0.48-3.48,0.06-4.52-1.19c-5.31-6.38-10.49-12.73-15.57-18.99 c-1.84-2.27-2.76-3.4-4.57-5.65c-1.39-1.72-1.4-3.78-0.04-6.48c1.18-2.34,3.3-4.21,5.53-4.88c1.81-0.54,3.4-0.18,4.35,0.99 c2.73,3.33,5.47,6.7,8.24,10.09c1.72,2.11,2.59,3.17,4.33,5.3c0.16,0.2,0.34,0.38,0.57,0.62c0.95,1.01,1.43,1.52,2.39,2.54 c1.85-3.12,2.77-4.68,4.62-7.79c10.88-18.54,23.99-36.11,38.65-51.69c6.98-7.42,14.97-14.72,23.15-20.84 c1.16-0.87,2.31-1.41,3.41-1.57c1-0.15,2.01,0,3.01,0.43c2,0.87,2.88,2.47,2.66,4.87c-0.19,2.14-1.21,3.87-3.14,5.32 c-7.21,5.41-14.38,11.6-20.77,18.35c-11.34,11.96-21.49,25.06-30.8,38.79c-5.7,8.42-10.99,17.6-15.57,26.73 C1166.93,1531.39,1164.64,1533.32,1162.26,1533.93z" style="fill: rgb(0, 22, 52);"/><g><path class="st11" d="M1187.8,1504.03c-0.38,0.57-0.75,1.14-1.11,1.7c-0.94,10.72-1.41,16.08-2.35,26.8 c-0.17,1.89-1.85,3.76-3.77,4.18c-17.19,3.97-34.16,8.45-51.08,13.47c-1.81,0.55-3.13-0.52-2.93-2.41 c1.88-17.52,3.77-35.03,5.64-52.55c0.2-1.88,1.82-3.87,3.6-4.42c15.46-4.79,31.09-9.12,46.87-12.73 c2.52-3.39,5.1-6.69,7.73-9.91c-1.16-0.13-2.44-0.06-3.77,0.24c-16.79,3.97-33.36,8.44-49.88,13.45 c-6.47,2.02-12.28,9.3-13.03,16.12c-1.92,17.52-3.85,35.03-5.77,52.55c-0.75,6.84,3.95,10.67,10.57,8.64 c16.97-5.03,33.99-9.51,51.24-13.48c6.97-1.54,13.15-8.23,13.72-15.07c1.11-13.16,2.21-26.32,3.32-39.47 C1193.73,1495.31,1190.72,1499.61,1187.8,1504.03z" style="fill: rgb(0, 22, 52);"/></g></g><path class="st12" d="M1434.55,1499.12c-61.36-21.22-124.29-25.19-188.58-18.58c0.41-6.38,0.61-9.56,1.01-15.92 c63.96-6.62,126.53-2.61,187.59,18.44C1434.56,1489.47,1434.56,1492.69,1434.55,1499.12z" style="fill: rgb(96, 115, 125);"/><path class="st12" d="M1434.49,1545.93c-62.22-21.75-126.22-25.61-191.48-19.03c0.41-6.38,0.61-9.58,1.02-15.97 c64.93-6.59,128.55-2.69,190.48,18.87C1434.5,1536.26,1434.5,1539.49,1434.49,1545.93z" style="fill: rgb(96, 115, 125);"/></g><g><g><path class="st11" d="M1149.22,1670.84c-1.97,0.48-3.66,0.1-4.77-1.07c-5.66-5.99-11.16-11.99-16.54-17.98 c-1.95-2.17-2.92-3.25-4.84-5.42c-1.47-1.66-1.5-3.65-0.09-6.29c1.22-2.29,3.41-4.13,5.75-4.79c1.89-0.54,3.56-0.2,4.57,0.93 c2.89,3.22,5.79,6.47,8.73,9.72c1.83,2.02,2.75,3.03,4.6,5.06c0.17,0.19,0.36,0.36,0.6,0.59c1.01,0.96,1.52,1.45,2.54,2.41 c1.91-3.01,2.87-4.52,4.79-7.54c11.5-18.3,25.24-35.54,40.42-50.78c7.42-7.45,15.84-14.72,24.42-20.83 c1.23-0.87,2.44-1.41,3.61-1.58c1.06-0.15,2.13-0.01,3.19,0.43c2.12,0.87,3.06,2.48,2.84,4.88c-0.19,2.14-1.28,3.88-3.31,5.31 c-7.66,5.39-15.32,11.66-21.91,18.24c-11.79,11.79-22.45,24.53-32.27,38.05c-5.87,8.09-11.36,16.94-16.14,25.77 C1154.09,1668.37,1151.71,1670.23,1149.22,1670.84z" style="fill: rgb(0, 22, 52);"/><g><path class="st11" d="M1175.82,1641.99c-0.4,0.56-0.78,1.11-1.16,1.65c-0.89,10.33-1.33,15.45-2.2,25.59 c-0.15,1.79-1.91,3.57-3.93,4c-17.99,3.96-35.76,8.44-53.48,13.48c-1.89,0.55-3.28-0.44-3.09-2.22 c1.77-16.87,3.57-33.73,5.36-50.6c0.2-1.84,1.87-3.8,3.73-4.36c16.25-4.82,32.63-8.97,49.14-12.75 c2.63-3.34,5.34-6.6,8.09-9.79c-1.23-0.13-2.57-0.05-3.98,0.25c-17.61,3.97-34.99,8.45-52.33,13.48 c-6.75,2.02-12.75,9.22-13.48,15.91c-1.84,16.86-3.67,33.73-5.48,50.59c-0.7,6.47,4.25,9.96,11.15,7.94 c17.77-5.04,35.59-9.52,53.63-13.48c7.32-1.54,13.77-7.89,14.3-14.36c1.03-12.62,2.08-25.24,3.12-37.86 C1181.99,1633.52,1178.86,1637.7,1175.82,1641.99z" style="fill: rgb(0, 22, 52);"/></g></g><path class="st12" d="M1434.38,1638.89c-63.91-22.9-130.06-26.54-197.21-20c0.39-6.21,0.59-9.33,0.98-15.58 c66.83-6.56,132.62-2.89,196.24,19.83C1434.39,1629.46,1434.38,1632.61,1434.38,1638.89z" style="fill: rgb(96, 115, 125);"/><path class="st12" d="M1434.36,1683.85c-64.71-23.45-131.9-27-199.96-20.5c0.37-6.03,0.56-9.06,0.94-15.16 c67.75-6.52,134.59-2.94,199.03,20.32C1434.36,1674.69,1434.36,1677.76,1434.36,1683.85z" style="fill: rgb(96, 115, 125);"/></g><path class="st12" d="M1847.97,1351.91c-92.88-29.67-186.91-32.13-280.04-1.75c0.04-7.17,0.06-10.73,0.1-17.78 c92.65-30.04,186.06-27.73,278.41,1.85C1847.05,1341.26,1847.36,1344.8,1847.97,1351.91z" style="fill: rgb(96, 115, 125);"/><path class="st12" d="M1852.12,1399.79c-94.34-29.73-190.08-32.45-284.44-1.03c0.04-7.45,0.06-11.15,0.1-18.5 c93.9-31,189-28.36,282.78,1.37C1851.17,1388.86,1851.49,1392.5,1852.12,1399.79z" style="fill: rgb(96, 115, 125);"/><path class="st13" d="M1762.52,1658.96c-19.51-1.49-38.81-1.91-58.36-1.2c-1.1-77.05-2.3-154.1-3.41-231.15 c17.85-0.2,35.43,0.61,53.19,2.43C1756.78,1505.68,1759.68,1582.32,1762.52,1658.96z" style="fill: rgb(80, 189, 123);"/><path class="st13" d="M1661.3,1662.31c-19.79,3.57-38.88,8.38-57.97,14.68c0.33-64.1,0.59-128.19,0.87-192.29 c18.65-5.59,37.28-9.85,56.52-12.9C1660.91,1535.31,1661.15,1598.81,1661.3,1662.31z" style="fill: rgb(80, 189, 123);"/><path class="st13" d="M1858.46,1677.49c-18.25-5.21-36.55-9.56-55.2-13.09c-3.86-68.06-7.74-136.12-11.6-204.19 c16.57,3.29,32.97,7.66,49.06,12.81C1846.63,1541.18,1852.55,1609.34,1858.46,1677.49z" style="fill: rgb(80, 189, 123);"/><path class="st14" d="M1121.94,1316.55L1079,1749.52v24.88c-8.7,3.13-17.52,6.48-26.47,10.07l55.06-461.65 C1107.59,1322.82,1112.67,1320.34,1121.94,1316.55z" style="fill: rgb(222, 219, 211);"/><path class="st14" d="M1543.82,1309.39v465.71c-18.14,8.84-27.53,15.72-27.53,15.72v-468 C1525.43,1317.85,1534.61,1313.38,1543.82,1309.39z" style="fill: rgb(222, 219, 211);"/><path class="st15" d="M1485.59,1772.82v18c0,0-148.64-108.99-406.59-16.42c-8.7,3.13-17.52,6.48-26.47,10.07l3.17-26.56 c31.81-11.96,87.53-28.9,173.35-42.27C1378.05,1692.43,1485.59,1772.82,1485.59,1772.82z" style="fill: rgb(173, 165, 158);"/><path class="st15" d="M1949.35,1784.47c-207.57-83.35-349.03-36.88-405.53-9.37c-18.14,8.84-27.53,15.72-27.53,15.72v-27.19 c21.44-12.38,96.57-50.1,216.53-50.19c74.27-0.07,151.96,21.21,213.27,43.68L1949.35,1784.47z" style="fill: rgb(173, 165, 158);"/></g><g><path class="st16" d="M1058.2,1816.25c-1.63,1.47-0.35,4.17,1.82,3.89c30.07-3.83,181.76-22.62,262.27-22.62 c75.02,0,137.69,30.15,156.14,39.99c1.78,0.95,3.7-1.04,2.68-2.78c-8.93-15.18-43.14-55.48-158.11-66.86 C1192.28,1754.93,1079.35,1797.17,1058.2,1816.25z" style="fill: rgb(133, 160, 167);"/><path class="st16" d="M1943.68,1816.25c1.63,1.47,0.35,4.17-1.82,3.89c-30.07-3.83-181.76-22.62-262.27-22.62 c-75.02,0-137.69,30.15-156.14,39.99c-1.78,0.95-3.7-1.04-2.68-2.78c8.93-15.18,43.14-55.48,158.11-66.86 C1809.6,1754.93,1922.52,1797.17,1943.68,1816.25z" style="fill: rgb(133, 160, 167);"/></g><g><polygon class="st17" points="1050.23,1390.11 1077.06,1378.95 1039.41,1688.42 1026.23,1678.07 &#9;&#9;&#9;&#9;" style="fill: rgb(89, 229, 250);"/><polygon class="st17" points="1951.64,1390.11 1924.82,1378.95 1962.47,1688.42 1975.64,1678.07 &#9;&#9;&#9;&#9;" style="fill: rgb(89, 229, 250);"/></g><path class="st17" d="M1323,1767.88c-130.72-12.94-243.64,29.29-264.8,48.37c-1.63,1.47-0.35,4.17,1.82,3.89 c30.07-3.83,181.76-22.62,262.27-22.62c75.02,0,137.69,30.15,156.14,39.99c1.78,0.95,3.7-1.04,2.68-2.78 C1472.17,1819.56,1437.97,1779.26,1323,1767.88z" style="fill: rgb(89, 229, 250);"/><path class="st17" d="M1678.88,1767.88c-114.98,11.38-149.18,51.68-158.11,66.86c-1.02,1.74,0.9,3.73,2.68,2.78 c18.45-9.84,81.12-39.99,156.14-39.99c80.51,0,232.2,18.79,262.27,22.62c2.17,0.28,3.45-2.42,1.82-3.89 C1922.52,1797.17,1809.6,1754.93,1678.88,1767.88z" style="fill: rgb(89, 229, 250);"/></g><g/><g><g/></g><g><g/><g/><g/><g/><g/><g/><g/></g><g/><g/><g/><g transform="matrix(1.886893, 0, 0, 1.886893, 1262.890973, -2727.200645)" style=""><path class="st1" d="M2414.52,2063.78c-7.61-1.72-13.43-2.07-20.37-2.07c-13.01,0-26.11,2.98-38.2,8.57 c-5.39-2.7-11.46-4.21-17.87-4.21h-42.3c-11.03,0-21.57,4.56-29.13,12.59c-3.9,4.15-6.82,9.03-8.65,14.3 c-21.49-20.29-50.34-31.25-83.27-31.25c-28.65,0-54.96,8.17-76.63,23.43c-7.21-11.73-20.05-19.06-34.06-19.06h-58.69 c-8.39,0-16.47,2.64-23.15,7.38v-55.95c0-22.09-17.91-40-40-40h-48.83c-22.09,0-40,17.91-40,40v49.71 c-13.57-3.45-28.62-5.4-43.05-5.4c-43.37,0-80.57,14.35-107.58,41.5c-4.88,4.9-9.34,10.17-13.36,15.75 c-3.26-6.32-7.08-12.22-11.48-17.66c-14.63-18.11-42.84-39.7-94.18-39.7c-25.17,0-50.01,4.68-70.97,13.12 c-5.26-5.39-12.07-9.34-19.84-11.09c-7.54-1.69-13.33-2.04-20.24-2.04c-13.01,0-26.11,2.98-38.2,8.57 c-5.39-2.7-11.46-4.21-17.87-4.21h-10.17v-34.28c0-22.09-17.91-40-40-40h-202.36c-6.19,0-12.05,1.41-17.28,3.92 c-10.4-6.44-22.85-10.12-36.48-10.12c-18.62,0-35.78,6.93-48.31,19.52c-12.31,12.35-19.06,29-19.03,46.88 c-0.02,11.97,2.99,23.38,8.66,33.33c-2.47,4.06-4.22,8.61-5.11,13.45c-20.92-25.23-51.27-37.07-81.48-37.07 c-17.33,0-32.68,3.53-45.94,9.25c-5.71-3.12-12.25-4.89-19.17-4.89h-42.69c-4.12,0-8.17,0.64-12.03,1.85v-36.13 c0-22.09-17.91-40-40-40H756.3c-17.67,0-32.67,11.46-37.96,27.36c-2.49,7.47-9.3,12.64-17.17,12.64h-0.88 c-7.88,0-14.69-5.17-17.17-12.64c-5.29-15.9-20.29-27.36-37.96-27.36h-48.89c-22.09,0-40,17.91-40,40v153.07 c0,50.83,12.95,90.57,38.48,118.13c17.18,18.54,49.07,40.64,103.44,40.64c44.04,0,80.89-14.16,106.59-40.94 c5.17-5.39,9.84-11.22,14.02-17.47v14.05c0,22.09,17.91,40,40,40h48.89c18.39,0,33.88-12.4,38.55-29.3 c4.68,16.9,20.17,29.3,38.55,29.3h48.89c9.96,0,19.06-3.65,26.06-9.67c7,6.02,16.1,9.67,26.06,9.67h48.89 c22.09,0,52.87-17.91,52.87-40l0,0c0,22.09,8.91,40,52.87,40h48.89c22.09,0,43.28-17.91,43.28-40l0,0c0,22.09,21.18,40,43.28,40 h48.89c22.09,0,40-17.91,40-40v-22.48c4.47,13.78,11.97,26.41,22.17,36.96c18.63,19.27,44.88,29.88,73.91,29.88 c15.68,0,30.65-2.86,44.23-8.26c5.24,2.5,11.09,3.89,17.22,3.89h44.07c11.84,0,23.07-5.24,30.67-14.32 c4.09-4.88,6.88-10.6,8.29-16.65c25.04,23,58.5,35.14,97.12,35.14c24.55,0,49.26-4.41,67.29-11.9 c6.62,4.86,14.79,7.74,23.64,7.74h48.83c15.7,0,29.29-9.05,35.84-22.22l2.62,4.03c7.38,11.35,20,18.19,33.53,18.19h59.94 c11.95,0,23.08-5.33,30.58-14.24c21.01,11.89,46.39,18.41,74.99,18.41c30.58,0,59.33-5.34,83.14-15.43 c1.57-0.67,3.08-1.43,4.53-2.27c7.33,8.3,18.04,13.54,29.99,13.54h48.89c22.09,0,40-17.91,40-40v-100.2 c0-3.16,0.27-5.73,0.52-7.12c0.92-4.56,1.84-4.56,4.52-4.56c3.29,0,4.76,0.25,6.09,0.53c2.73,0.57,5.49,0.86,8.23,0.86 c11.6,0,22.9-5.05,30.71-14.36c6.15-7.33,9.29-16.72,9.29-26.29v-45.17C2445.61,2084.26,2432.76,2067.9,2414.52,2063.78z" style="fill: rgb(253, 252, 255);"/><path class="st3" d="M645.15,2031.8v155.94c0,52.26,21.68,76.62,54.81,76.62c35.19,0,56.34-24.11,56.34-76.62V2031.8h48.89 v152.79c0,82.39-42.4,119.06-107,119.06c-61.71,0-101.92-34.62-101.92-118.78V2031.8H645.15z" style="fill: rgb(9, 31, 49);"/><path class="st3" d="M858.8,2163.53c0-22.32-0.71-40.72-1.59-57.45h42.69l2.41,29.01h1.13c8.55-14.99,29.47-33.37,61.57-33.37 c33.68,0,68.67,21.69,68.67,82.81v114.76H984.8v-109.01c0-27.72-10.18-48.84-36.86-48.84c-19.45,0-32.89,13.73-38.01,28.66 c-1.5,4-2.24,9.94-2.24,15.5v113.69H858.8V2163.53z" style="fill: rgb(9, 31, 49);"/><path class="st3" d="M1137.55,2052c0.06,14.59-10.54,26.35-27.84,26.35c-16.2,0-26.82-11.76-26.77-26.35 c-0.06-14.89,10.94-26.41,27.35-26.41C1126.88,2025.6,1137.38,2036.99,1137.55,2052z M1085.8,2299.28v-193.2h48.89v193.2H1085.8z " style="fill: rgb(9, 31, 49);"/><path class="st3" d="M1240.42,2072.85h-76.37v-41.06h202.36v41.06h-77.1v226.42h-48.89V2072.85z" style="fill: rgb(9, 31, 49);"/><path class="st3" d="M1375.86,2168.19c0-25.88-0.54-44.9-1.59-62.12h42.3l1.81,36.72h1.37c9.52-27.21,32.04-41.08,52.89-41.08 c4.77,0,7.56,0.18,11.46,1.06v46.01c-4.18-0.88-8.44-1.39-14.32-1.39c-23.27,0-39.42,14.82-43.79,36.96 c-0.82,4.31-1.25,9.48-1.25,14.73v100.2h-48.89V2168.19z" style="fill: rgb(9, 31, 49);"/><path class="st3" d="M1622.29,2299.28l-3.34-21.52h-1.17c-11.71,15.25-31.93,25.89-56.94,25.89c-39.2,0-60.91-28-60.91-57.47 c0-48.75,43.44-73.43,114.6-73.15v-3.2c0-12.7-5.03-33.81-39.23-33.68c-18.93,0-38.77,6.1-51.94,14.41l-9.68-31.7 c14.6-8.87,39.61-17.15,70.03-17.15c61.97,0,79.65,39.07,79.65,81.46v69.57c0,17.56,0.88,34.61,3,46.54H1622.29z M1615.82,2204.65c-34.47-0.46-67.44,6.81-67.44,36.23c0,18.91,12.41,27.83,27.85,27.83c19.5,0,33.54-12.59,38.23-26.74 c1.05-3.39,1.36-7.23,1.36-10.62V2204.65z" style="fill: rgb(9, 31, 49);"/><path class="st3" d="M1856.97,2293.47c-10.11,4.79-30.28,9.97-54.53,9.97c-60.57,0-99.61-38.85-99.61-98.81 c0-57.85,39.52-102.81,107.48-102.81c18.05,0,36.01,3.94,47.18,8.81l-8.67,36.73c-7.86-3.83-19.56-7.55-36.96-7.55 c-37.26,0-59.33,27.23-59.16,62.65c0,39.63,26.03,62.35,59.32,62.35c16.74,0,28.82-3.63,38.36-7.62L1856.97,2293.47z" style="fill: rgb(9, 31, 49);"/><path class="st3" d="M1942.19,2190.8h0.79c4.59-7.55,10.19-15.76,15.24-22.68l47.12-62.04h58.69l-71.64,78.86l81.73,114.34 h-59.94l-55.54-85.4l-16.45,19.59v65.81h-48.83v-281.77h48.83V2190.8z" style="fill: rgb(9, 31, 49);"/><path class="st3" d="M2127.01,2216.19c1.3,35.01,28.39,50.32,59.67,50.32c22.47,0,38.55-3.52,53.32-8.95l7.23,33.63 c-16.55,7.02-39.48,12.26-67.52,12.26c-62.73,0-99.47-38.75-99.47-97.96c0-53.32,32.35-103.78,94.49-103.78 c62.8,0,83.24,51.63,83.24,93.96c0,9.08-0.79,16.35-1.72,20.52H2127.01z M2211.97,2182.14c0.21-17.89-7.57-47.08-40.29-47.08 c-30.07,0-42.58,27.31-44.75,47.08H2211.97z" style="fill: rgb(9, 31, 49);"/><path class="st3" d="M2297.36,2168.19c0-25.88-0.54-44.9-1.59-62.12h42.3l1.81,36.72h1.37c9.52-27.21,32.04-41.08,52.89-41.08 c4.77,0,7.56,0.18,11.46,1.06v46.01c-4.18-0.88-8.44-1.39-14.32-1.39c-23.27,0-39.42,14.82-43.79,36.96 c-0.82,4.31-1.25,9.48-1.25,14.73v100.2h-48.89V2168.19z" style="fill: rgb(9, 31, 49);"/></g></g></svg>